<?xml version="1.0" encoding="UTF-8" standalone="no"?>
<!-- Created with Inkscape (http://www.inkscape.org/) -->

<svg
   width="90.021248mm"
   height="75.478493mm"
   viewBox="0 0 90.021248 75.478493"
   version="1.1"
   id="svg1"
   xml:space="preserve"
   inkscape:version="1.4.4 (dcaf3e7, 2026-05-05)"
   sodipodi:docname="shredder.svg"
   xmlns:inkscape="http://www.inkscape.org/namespaces/inkscape"
   xmlns:sodipodi="http://sodipodi.sourceforge.net/DTD/sodipodi-0.dtd"
   xmlns="http://www.w3.org/2000/svg"
   xmlns:svg="http://www.w3.org/2000/svg"><sodipodi:namedview
     id="namedview1"
     pagecolor="#ffffff"
     bordercolor="#666666"
     borderopacity="1.0"
     inkscape:showpageshadow="2"
     inkscape:pageopacity="0.0"
     inkscape:pagecheckerboard="0"
     inkscape:deskcolor="#d1d1d1"
     inkscape:document-units="mm"
     inkscape:zoom="2.3129942"
     inkscape:cx="21.833171"
     inkscape:cy="152.8322"
     inkscape:window-width="2560"
     inkscape:window-height="1361"
     inkscape:window-x="-9"
     inkscape:window-y="1341"
     inkscape:window-maximized="1"
     inkscape:current-layer="layer1" /><defs
     id="defs1" /><g
     inkscape:label="Layer 1"
     inkscape:groupmode="layer"
     id="layer1"
     transform="translate(-26.368711,-111.17445)"><path
       style="fill:#3a3d41;fill-opacity:1;stroke-width:1.05833;stroke-linecap:round;stroke-linejoin:round"
       d="M 48.046138,185.18507 33.971987,127.43252 h -5.33847 l -1.617719,-5.50024 1.375061,-5.7429 13.507949,-0.40443 -0.242658,-2.75012 2.669235,-0.88975 55.730395,0.40443 0.80886,2.50746 1.13241,0.88975 h 12.21377 l 0.72797,4.6105 -0.64708,6.8753 -3.39721,0.24266 -13.831497,57.75254 z"
       id="path4" /><path
       id="rect1"
       style="fill:none;stroke:#000000;stroke-width:2.64583333;stroke-linecap:round;paint-order:markers stroke fill;stroke-dasharray:none"
       d="m 35.704736,126.43282 h 73.179444 c 0.51532,0 1.05038,0.42908 0.93019,0.93019 l -13.269236,55.3244 c -0.345385,1.44004 -0.268148,1.96553 -0.60122,1.96553 H 48.645003 c -0.333076,0 -0.255256,-0.52308 -0.601219,-1.96553 l -13.269236,-55.3244 c -0.120188,-0.50111 0.414863,-0.93019 0.930188,-0.93019 z"
       sodipodi:nodetypes="sssssssss" /><path
       id="rect2"
       style="fill:none;stroke:#000000;stroke-width:2.64583333;stroke-linecap:round;paint-order:markers stroke fill;stroke-dasharray:none"
       d="m 29.2989,116.87862 h 84.16087 c 0.51533,0 0.93019,0.41486 0.93019,0.93018 v 7.74839 c 0,0.51532 -0.41486,0.93018 -0.93019,0.93018 H 29.2989 c -0.515325,0 -0.930189,-0.41486 -0.930189,-0.93018 v -7.74839 c 0,-0.51532 0.414864,-0.93018 0.930189,-0.93018 z" /><path
       id="rect3"
       style="fill:none;stroke:#000000;stroke-width:2.52004;stroke-linecap:round;stroke-dasharray:none;paint-order:markers stroke fill"
       d="m 42.580503,112.59643 h 57.597657 c 0.52554,0 0.94863,0.20343 0.94863,0.45611 v 3.35058 c 0,0.25268 -0.42309,0.45611 -0.94863,0.45611 H 42.580503 c -0.525536,0 -0.948621,-0.20343 -0.948621,-0.45611 v -3.35058 c 0,-0.25268 0.423085,-0.45611 0.948621,-0.45611 z" /><g
       id="g6"
       transform="translate(80.988095,33.85943)" /></g></svg>
